<?xml version="1.0" standalone="no"?>
<!DOCTYPE svg PUBLIC "-//W3C//DTD SVG 20010904//EN"
 "http://www.w3.org/TR/2001/REC-SVG-20010904/DTD/svg10.dtd">
<svg version="1.0" xmlns="http://www.w3.org/2000/svg"
 width="700.000000pt" height="700.000000pt" viewBox="0 0 700.000000 700.000000"
 preserveAspectRatio="xMidYMid meet">
<metadata>
Created by potrace 1.11, written by Peter Selinger 2001-2013
</metadata>
<g transform="translate(0.000000,700.000000) scale(0.100000,-0.100000)"
fill="#000000" stroke="none">
<path d="M0 3500 l0 -3500 3500 0 3500 0 0 3500 0 3500 -3500 0 -3500 0 0
-3500z m3000 2250 l0 -250 -250 0 -250 0 0 -750 0 -750 -750 0 -750 0 0 500 0
500 250 0 250 0 0 -250 0 -250 250 0 250 0 0 500 0 500 -500 0 -500 0 0 250 0
250 1000 0 1000 0 0 -250z m3000 0 l0 -250 -750 0 -750 0 0 -125 0 -125 500 0
500 0 0 -250 0 -250 -500 0 -500 0 0 -125 0 -125 750 0 750 0 0 -250 0 -250
-1000 0 -1000 0 0 1000 0 1000 1000 0 1000 0 0 -250z m-3000 -3000 l0 -250
-750 0 -750 0 0 -125 0 -125 500 0 500 0 0 -250 0 -250 -500 0 -500 0 0 -375
0 -375 -250 0 -250 0 0 1000 0 1000 1000 0 1000 0 0 -250z m3000 0 l0 -250
-750 0 -750 0 0 -125 0 -125 500 0 500 0 0 -250 0 -250 -500 0 -500 0 0 -375
0 -375 -250 0 -250 0 0 1000 0 1000 1000 0 1000 0 0 -250z"/>
</g>
</svg>
