<svg width="28" height="28" viewBox="0 0 28 28" version="1.1" xmlns="http://www.w3.org/2000/svg" xmlns:xlink="http://www.w3.org/1999/xlink" xmlns:figma="http://www.figma.com/figma/ns">
<title>JEFF</title>
<desc>Created using Figma</desc>
<g id="Canvas" transform="translate(516 477)" figma:type="canvas">
<g id="JEFF" figma:type="frame">
<g id="BASE" figma:type="rounded-rectangle">
<use xlink:href="#path0_fill" transform="translate(-516 -477)" fill="#212121"/>
</g>
<g id="SQUARE" figma:type="instance">
<g id="Vector 2" figma:type="vector">
<use xlink:href="#path1_fill" transform="translate(-512 -461)" fill="#FFFFFF"/>
</g>
<g id="Vector 2" figma:type="vector">
<use xlink:href="#path1_fill" transform="translate(-500 -461)" fill="#FFFFFF"/>
</g>
<g id="Vector 3" figma:type="vector">
<use xlink:href="#path2_fill" transform="translate(-500 -473)" fill="#FFFFFF"/>
</g>
<g id="Vector" figma:type="vector">
<use xlink:href="#path3_fill" transform="translate(-512 -473)" fill="#FFFFFF"/>
</g>
</g>
</g>
</g>
<defs>
<path id="path0_fill" d="M 0 0L 28 0L 28 28L 0 28L 0 0Z"/>
<path id="path1_fill" d="M 8 0L 0 0L 0 8L 2 8L 2 5L 6 5L 6 3L 2 3L 2 2L 8 2L 8 0Z"/>
<path id="path2_fill" d="M 0 8L 0 0L 8 0L 8 2L 2 2L 2 3L 6 3L 6 5L 2 5L 2 6L 8 6L 8 8L 0 8Z"/>
<path id="path3_fill" d="M 8 0L 0 0L 0 2L 4 2L 4 6L 2 6L 2 4L 0 4L 0 8L 6 8L 6 2L 8 2L 8 0Z"/>
</defs>
</svg>
