<svg width="28" height="28" viewBox="0 0 28 28" version="1.1" xmlns="http://www.w3.org/2000/svg" xmlns:xlink="http://www.w3.org/1999/xlink" xmlns:figma="http://www.figma.com/figma/ns">
<title>B</title>
<desc>Created using Figma</desc>
<g id="Canvas" transform="translate(540 573)" figma:type="canvas">
<g id="B" figma:type="vector">
<use xlink:href="#path0_fill" transform="translate(-540 -573)" fill="#2962FF"/>
</g>
</g>
<defs>
<path id="path0_fill" fill-rule="evenodd" d="M 0 0L 28 0L 28 28L 0 28L 0 0ZM 12 16L 4 16L 4 24L 6 24L 6 21L 10 21L 10 19L 6 19L 6 18L 12 18L 12 16ZM 24 16L 16 16L 16 24L 18 24L 18 21L 22 21L 22 19L 18 19L 18 18L 24 18L 24 16ZM 16 12L 16 4L 24 4L 24 6L 18 6L 18 7L 22 7L 22 9L 18 9L 18 10L 24 10L 24 12L 16 12ZM 12 4L 4 4L 4 6L 8 6L 8 10L 6 10L 6 8L 4 8L 4 12L 10 12L 10 6L 12 6L 12 4Z"/>
</defs>
</svg>