<svg width="49" height="16" viewBox="0 0 49 16" version="1.1" xmlns="http://www.w3.org/2000/svg" xmlns:xlink="http://www.w3.org/1999/xlink" xmlns:figma="http://www.figma.com/figma/ns">
<title>B</title>
<desc>Created using Figma</desc>
<g id="Canvas" transform="translate(385 573)" figma:type="canvas">
<g id="B" figma:type="vector">
<use xlink:href="#path0_fill" transform="translate(-385 -573)" fill="#212121"/>
</g>
</g>
<defs>
<path id="path0_fill" fill-rule="evenodd" d="M 0 0L 49 0L 49 16L 0 16L 0 0ZM 34 4L 26 4L 26 12L 28 12L 28 9L 32 9L 32 7L 28 7L 28 6L 34 6L 34 4ZM 45 4L 37 4L 37 12L 39 12L 39 9L 43 9L 43 7L 39 7L 39 6L 45 6L 45 4ZM 15 12L 15 4L 23 4L 23 6L 17 6L 17 7L 21 7L 21 9L 17 9L 17 10L 23 10L 23 12L 15 12ZM 12 4L 4 4L 4 6L 8 6L 8 10L 6 10L 6 8L 4 8L 4 12L 10 12L 10 6L 12 6L 12 4Z"/>
</defs>
</svg>
